# xmcd CD database file
#
# Track frame offsets:
#	150
#	23660
#	46274
#	74627
#	96160
#	115848
#	134372
#	169150
#	184116
#	213108
#	241658
#
# Disc length: 3367 seconds
#
# Revision: 0
# Processed by: cddbd v1.5.1PL2 Copyright (c) Steve Scherf et al.
# Submitted via: CDex 1.51
#
DISCID=910d250b
DTITLE=Ronny Johansson Trio - Tenderly
DYEAR=2004
DGENRE=Jazz
TTITLE0=On Vacation
TTITLE1=Body And Soul
TTITLE2=Alone Together
TTITLE3=Tenderly
TTITLE4=At Home
TTITLE5=Some Like It Cool
TTITLE6=Into Somewhere
TTITLE7=A Tango For The Saints
TTITLE8=A Midsummer Waltz
TTITLE9=Sweet And Lovely
TTITLE10=See You
EXTD=YEAR: 2004
EXTT0=
EXTT1=
EXTT2=
EXTT3=
EXTT4=
EXTT5=
EXTT6=
EXTT7=
EXTT8=
EXTT9=
EXTT10=
PLAYORDER=
